<?xml version="1.0" encoding="UTF-8" standalone="no"?>
<!-- Created with Inkscape (http://www.inkscape.org/) -->

<svg
   xmlns:dc="http://purl.org/dc/elements/1.1/"
   xmlns:cc="http://creativecommons.org/ns#"
   xmlns:rdf="http://www.w3.org/1999/02/22-rdf-syntax-ns#"
   xmlns:svg="http://www.w3.org/2000/svg"
   xmlns="http://www.w3.org/2000/svg"
   xmlns:sodipodi="http://sodipodi.sourceforge.net/DTD/sodipodi-0.dtd"
   xmlns:inkscape="http://www.inkscape.org/namespaces/inkscape"
   version="1.1"
   id="svg2"
   xml:space="preserve"
   width="2184.1648"
   height="554.40668"
   viewBox="0 0 2184.1648 554.40666"
   sodipodi:docname="VSC - Combi logo.svg"
   inkscape:version="0.92.3 (2405546, 2018-03-11)"><metadata
     id="metadata8"><rdf:RDF><cc:Work
         rdf:about=""><dc:format>image/svg+xml</dc:format><dc:type
           rdf:resource="http://purl.org/dc/dcmitype/StillImage" /><dc:title></dc:title></cc:Work></rdf:RDF></metadata><defs
     id="defs6"><clipPath
       clipPathUnits="userSpaceOnUse"
       id="clipPath26"><path
         d="M 0,98.163 H 350.96 V 0 H 0 Z"
         id="path24"
         inkscape:connector-curvature="0" /></clipPath></defs><sodipodi:namedview
     pagecolor="#ffffff"
     bordercolor="#666666"
     borderopacity="1"
     objecttolerance="10"
     gridtolerance="10"
     guidetolerance="10"
     inkscape:pageopacity="0"
     inkscape:pageshadow="2"
     inkscape:window-width="1920"
     inkscape:window-height="1009"
     id="namedview4"
     showgrid="false"
     inkscape:zoom="0.68597563"
     inkscape:cx="1025.7767"
     inkscape:cy="281.20206"
     inkscape:window-x="0"
     inkscape:window-y="0"
     inkscape:window-maximized="1"
     inkscape:current-layer="g10"
     fit-margin-top="0"
     fit-margin-left="0"
     fit-margin-right="0"
     fit-margin-bottom="0" /><g
     id="g10"
     inkscape:groupmode="layer"
     inkscape:label="VSC - Combi logo"
     transform="matrix(1.3333333,0,0,-1.3333333,862.28074,338.64666)"><g
   id="g12"
   transform="matrix(5,0,0,5,391.81356,147.543)"><path
     d="m 0,0 -6.38,-18.517 h -3.792 L -16.552,0 h 3.432 L -8.276,-14.061 -3.432,0 Z"
     style="fill:#d96522;fill-opacity:1;fill-rule:nonzero;stroke:none"
     id="path14"
     inkscape:connector-curvature="0" /></g><g
   id="g16"
   transform="matrix(5,0,0,5,402.90706,155.155)"><path
     d="m 0,0 2.823,0.277 h 0.415 v -20.04 H 0 Z"
     style="fill:#d96522;fill-opacity:1;fill-rule:nonzero;stroke:none"
     id="path18"
     inkscape:connector-curvature="0" /></g><g
   id="g20"
   transform="matrix(5,0,0,5,-689.40494,-184.33)"><g
     id="g22"
     clip-path="url(#clipPath26)"><g
       id="g28"
       transform="translate(232.3032,53.9463)"><path
         d="m 0,0 c -1.509,0 -2.685,0.028 -3.488,-0.166 -0.803,-0.193 -1.245,-0.608 -1.245,-1.453 0,-1.177 0.844,-1.827 2.02,-1.827 0.401,0 1.08,0.083 1.661,0.443 C -0.471,-2.644 0,-2.021 0,-0.872 Z m 3.861,-6.089 c -0.54,0 -1.066,0.083 -1.605,0.318 -0.54,0.221 -1.08,0.595 -1.62,1.19 -0.567,-0.429 -1.065,-0.803 -1.66,-1.065 -0.609,-0.277 -1.288,-0.443 -2.215,-0.443 -0.664,0 -1.398,0.097 -2.103,0.346 -0.706,0.249 -1.357,0.664 -1.841,1.343 -0.484,0.677 -0.789,1.619 -0.789,2.891 0,1.26 0.305,2.271 1.079,2.948 0.776,0.678 2.035,1.052 3.959,1.052 0.775,0 1.674,0 2.948,-0.11 v 0.72 c 0,0.996 -0.319,1.688 -0.831,2.103 -0.512,0.415 -1.204,0.581 -1.979,0.581 -0.609,0 -1.287,-0.111 -1.951,-0.29 C -5.412,5.314 -6.076,5.08 -6.643,4.803 l -0.761,2.823 c 1.508,0.72 3.432,1.218 5.245,1.218 1.425,0 2.754,-0.305 3.75,-1.052 C 2.574,7.044 3.197,5.868 3.197,4.11 v -5.341 c 0,-0.679 0.221,-1.164 0.609,-1.496 0.374,-0.332 0.899,-0.525 1.522,-0.65 z"
         style="fill:#d96522;fill-opacity:1;fill-rule:nonzero;stroke:none"
         id="path30"
         inkscape:connector-curvature="0" /></g><g
       id="g32"
       transform="translate(246.4355,53.9463)"><path
         d="m 0,0 c -1.508,0 -2.684,0.028 -3.487,-0.166 -0.803,-0.193 -1.245,-0.608 -1.245,-1.453 0,-1.177 0.844,-1.827 2.021,-1.827 0.401,0 1.078,0.083 1.66,0.443 C -0.471,-2.644 0,-2.021 0,-0.872 Z m 3.861,-6.089 c -0.539,0 -1.064,0.083 -1.605,0.318 -0.539,0.221 -1.078,0.595 -1.619,1.19 -0.567,-0.429 -1.065,-0.803 -1.66,-1.065 -0.61,-0.277 -1.287,-0.443 -2.215,-0.443 -0.664,0 -1.397,0.097 -2.103,0.346 -0.706,0.249 -1.357,0.664 -1.841,1.343 -0.485,0.677 -0.789,1.619 -0.789,2.891 0,1.26 0.304,2.271 1.08,2.948 0.774,0.678 2.034,1.052 3.958,1.052 0.775,0 1.675,0 2.947,-0.11 v 0.72 c 0,0.996 -0.317,1.688 -0.83,2.103 -0.512,0.415 -1.204,0.581 -1.978,0.581 -0.61,0 -1.288,-0.111 -1.953,-0.29 C -5.411,5.314 -6.075,5.08 -6.642,4.803 l -0.762,2.823 c 1.509,0.72 3.433,1.218 5.246,1.218 1.426,0 2.754,-0.305 3.75,-1.052 C 2.574,7.044 3.197,5.868 3.197,4.11 v -5.341 c 0,-0.679 0.223,-1.164 0.61,-1.496 0.373,-0.332 0.9,-0.525 1.521,-0.65 z"
         style="fill:#d96522;fill-opacity:1;fill-rule:nonzero;stroke:none"
         id="path34"
         inkscape:connector-curvature="0" /></g><g
       id="g36"
       transform="translate(253.7051,62.4996)"><path
         d="m 0,0 h 2.74 l 0.319,-1.121 c 1.328,0.886 2.976,1.398 4.582,1.398 1.369,0 2.683,-0.374 3.638,-1.204 0.955,-0.831 1.578,-2.118 1.578,-3.904 v -9.535 H 9.619 v 8.581 c 0,1.066 -0.387,1.813 -0.982,2.284 -0.596,0.47 -1.426,0.664 -2.27,0.664 -1.107,0 -2.242,-0.332 -3.129,-0.886 V -14.366 H 0 Z"
         style="fill:#d96522;fill-opacity:1;fill-rule:nonzero;stroke:none"
         id="path38"
         inkscape:connector-curvature="0" /></g><g
       id="g40"
       transform="translate(278.8281,59.4546)"><path
         d="m 0,0 c -0.816,0.208 -1.646,0.305 -2.297,0.305 -1.232,0 -2.269,-0.36 -2.99,-1.108 -0.719,-0.747 -1.135,-1.854 -1.135,-3.349 0,-1.094 0.305,-2.159 0.887,-2.975 0.582,-0.817 1.439,-1.357 2.588,-1.357 0.982,0 2.076,0.347 2.947,0.886 z M 3.238,-11.321 H 0.789 l -0.58,1.079 c -1.107,-0.83 -2.272,-1.355 -3.861,-1.355 -2.063,0 -3.6,0.83 -4.61,2.103 -1.009,1.274 -1.508,2.99 -1.508,4.761 0,2.712 0.817,4.733 2.172,6.076 1.358,1.328 3.266,1.979 5.481,1.979 0.65,0 1.357,-0.042 2.117,-0.139 v 5.259 l 2.74,0.277 h 0.498 z"
         style="fill:#d96522;fill-opacity:1;fill-rule:nonzero;stroke:none"
         id="path42"
         inkscape:connector-curvature="0" /></g><g
       id="g44"
       transform="translate(293.959,56.6729)"><path
         d="M 0,0 C -0.098,1.052 -0.443,1.799 -0.941,2.297 -1.439,2.782 -2.076,2.989 -2.699,2.989 -3.363,2.989 -4.041,2.768 -4.596,2.284 -5.162,1.785 -5.619,1.038 -5.799,0 Z M 2.227,-4.816 V -7.958 C 1.576,-8.276 0.885,-8.47 0.18,-8.608 c -0.721,-0.139 -1.426,-0.207 -2.035,-0.207 -1.993,0 -3.834,0.622 -5.19,1.854 -1.357,1.232 -2.215,3.113 -2.215,5.605 0,2.421 0.803,4.276 2.022,5.549 1.203,1.26 2.822,1.911 4.441,1.911 0.457,0 1.274,-0.056 2.117,-0.347 C 0.166,5.467 1.092,4.913 1.785,3.958 2.477,3.003 2.961,1.592 2.961,-0.401 v -2.16 h -8.719 c 0.262,-1.162 0.858,-1.951 1.633,-2.449 0.762,-0.498 1.687,-0.706 2.615,-0.706 1.219,0 2.506,0.346 3.614,0.942 z"
         style="fill:#d96522;fill-opacity:1;fill-rule:nonzero;stroke:none"
         id="path46"
         inkscape:connector-curvature="0" /></g><g
       id="g48"
       transform="translate(307.8418,58.9288)"><path
         d="m 0,0 c -0.816,0.498 -1.619,0.72 -2.436,0.72 -1.05,0 -2.019,-0.388 -2.892,-1.052 V -10.795 H -8.566 V 3.571 h 2.74 l 0.332,-1.176 c 0.996,0.844 2.215,1.453 3.654,1.453 0.387,0 0.928,-0.028 1.453,-0.125 C 0.139,3.626 0.65,3.488 1.025,3.28 Z"
         style="fill:#d96522;fill-opacity:1;fill-rule:nonzero;stroke:none"
         id="path50"
         inkscape:connector-curvature="0" /></g><g
       id="g52"
       transform="translate(317.9902,56.6729)"><path
         d="M 0,0 C -0.098,1.052 -0.443,1.799 -0.941,2.297 -1.439,2.782 -2.076,2.989 -2.699,2.989 -3.363,2.989 -4.041,2.768 -4.596,2.284 -5.162,1.785 -5.619,1.038 -5.799,0 Z M 2.227,-4.816 V -7.958 C 1.576,-8.276 0.885,-8.47 0.18,-8.608 c -0.721,-0.139 -1.426,-0.207 -2.035,-0.207 -1.993,0 -3.834,0.622 -5.19,1.854 -1.357,1.232 -2.215,3.113 -2.215,5.605 0,2.421 0.803,4.276 2.022,5.549 1.203,1.26 2.822,1.911 4.441,1.911 0.457,0 1.274,-0.056 2.117,-0.347 C 0.166,5.467 1.092,4.913 1.785,3.958 2.477,3.003 2.961,1.592 2.961,-0.401 v -2.16 h -8.719 c 0.262,-1.162 0.858,-1.951 1.633,-2.449 0.762,-0.498 1.687,-0.706 2.615,-0.706 1.219,0 2.506,0.346 3.614,0.942 z"
         style="fill:#d96522;fill-opacity:1;fill-rule:nonzero;stroke:none"
         id="path54"
         inkscape:connector-curvature="0" /></g><g
       id="g56"
       transform="translate(323.3066,62.4996)"><path
         d="m 0,0 h 2.74 l 0.319,-1.121 c 1.328,0.886 2.976,1.398 4.582,1.398 1.369,0 2.683,-0.374 3.638,-1.204 0.955,-0.831 1.578,-2.118 1.578,-3.904 v -9.535 H 9.619 v 8.581 c 0,1.066 -0.387,1.813 -0.982,2.284 -0.596,0.47 -1.426,0.664 -2.27,0.664 -1.107,0 -2.242,-0.332 -3.129,-0.886 V -14.366 H 0 Z"
         style="fill:#d96522;fill-opacity:1;fill-rule:nonzero;stroke:none"
         id="path58"
         inkscape:connector-curvature="0" /></g><g
       id="g60"
       transform="translate(203.6846,4.502)"><path
         d="m 0,0 -28.238,83.024 0.402,0.137 L 0.402,0.137 Z"
         style="fill:#d96522;fill-opacity:1;fill-rule:nonzero;stroke:none"
         id="path62"
         inkscape:connector-curvature="0" /></g><g
       id="g64"
       transform="translate(175.6245,46.254)"><path
         d="m 0,0 c -2.037,1.555 -2.991,-0.012 -4.272,0.092 -1.084,0.086 -2.1,1.836 -2.939,1.418 -1.601,-0.815 0.642,-3.696 1.615,-4.283 0.867,-0.52 1.958,-0.998 2.22,-1.12 1.287,-0.601 1.799,-1.511 1.961,-2.933 0.041,-0.326 0,-1.07 -0.08,-1.416 -0.587,-2.492 -4.953,-4.756 -7.46,-3.043 -1.181,0.808 -2.259,1.853 -2.632,3.703 -0.675,3.275 -3.039,5.684 -3.797,8.889 -0.461,1.947 -0.802,4.002 -1.31,5.961 -0.517,2.025 -1.049,4.031 -1.473,5.871 -0.387,1.711 -1.2,4.267 -1.789,5.825 -2.395,6.252 -3.477,5.798 -3.477,5.798 0,0 0.872,-1.736 4.043,-17.059 0.131,-0.627 1.284,-7.377 2.125,-9.599 0.301,-0.797 0.827,-2.499 1.172,-3.25 1.009,-2.196 3.672,-5.524 3.848,-8.524 0.101,-1.734 0.299,-3.17 0.34,-4.482 0.025,-0.385 0.195,-1.95 0.445,-2.645 0.65,-1.83 5.9,-7.734 11.474,-7.734 v 4.474 c -5.538,0 -10.755,3.104 -10.884,3.43 -0.08,0.147 0.288,2.264 0.663,3.205 0.726,1.822 2.094,3.488 4.5,3.666 2.683,0.193 4.302,-0.586 5.721,-0.586 z"
         style="fill:#d96522;fill-opacity:1;fill-rule:nonzero;stroke:none"
         id="path66"
         inkscape:connector-curvature="0" /></g><g
       id="g68"
       transform="translate(151.5747,62.4932)"><path
         d="m 0,0 c -0.203,-3.351 -5.389,-7.933 -7.014,-10.87 -0.796,-1.445 -1.768,-3.926 -2.019,-5.363 -0.69,-3.998 0.185,-6.483 1.16,-8.823 1.716,-4.113 -0.232,-5.625 1.109,-4.791 1.661,1.354 1.409,4.51 1.286,6.481 -0.096,1.599 -0.204,3.418 0.039,5.324 0.46,3.566 2.62,7.395 4.463,10.07 C 1.213,-4.78 0.418,-1.479 0,0"
         style="fill:#d96522;fill-opacity:1;fill-rule:nonzero;stroke:none"
         id="path70"
         inkscape:connector-curvature="0" /></g><g
       id="g72"
       transform="translate(152.6196,52.9766)"><path
         d="m 0,0 c 0,0 0.553,-2.654 -1.789,-9.48 -6.125,-17.854 5.575,-19.545 8.906,-23.743 0,0 1.289,1.819 -4.017,7.639 -1.938,2.127 -3.686,6.813 -2.163,13.506 C 3.139,-2.387 0,0 0,0"
         style="fill:#d96522;fill-opacity:1;fill-rule:nonzero;stroke:none"
         id="path74"
         inkscape:connector-curvature="0" /></g><g
       id="g76"
       transform="translate(141.0376,64.6817)"><path
         d="m 0,0 c -0.28,1.055 -0.365,1.998 -0.304,2.84 0.283,4.195 4.093,5.893 5.042,6.518 0,0 1.713,1.173 1.934,2.358 0,0 1.754,-4.415 -2.268,-6.945 C 2.363,3.486 0.977,1.98 0,0"
         style="fill:#d96522;fill-opacity:1;fill-rule:nonzero;stroke:none"
         id="path78"
         inkscape:connector-curvature="0" /></g><g
       id="g80"
       transform="translate(150.645,68.7364)"><path
         d="m 0,0 c 0.217,-0.426 1.796,-2.737 -4.671,-8.074 -6.454,-5.33 -4.438,-9.141 -4.438,-9.141 0,0 -6.89,3.832 1.046,10.453 7.934,6.616 6.308,7.957 6.308,7.957 0,0 1.136,0.055 1.755,-1.195"
         style="fill:#d96522;fill-opacity:1;fill-rule:nonzero;stroke:none"
         id="path82"
         inkscape:connector-curvature="0" /></g><g
       id="g84"
       transform="translate(162.52,65.125)"><path
         d="M 0,0 C 0.094,0.25 0.229,0.049 0.512,0.227 0.813,0.512 1.123,0.979 1.613,1.136 1.965,1.244 2.447,1.193 2.776,1.066 2.995,1.012 2.862,0.449 2.698,0.305 2.349,0.047 1.316,0.472 1.316,-0.302 1.359,-1.57 3.031,-0.262 3.905,-0.298 4.332,-3.393 -0.761,-2.541 0,0 M -3.48,1.568 C -2.363,1.422 -1.652,-2.063 0.932,-2.82 2.832,-3.375 4.852,-3.074 5.3,-4.217 4.428,-4.68 5.115,-6.213 5.992,-5.962 6.716,-3.926 7.08,3.943 -3.48,1.568"
         style="fill:#d96522;fill-opacity:1;fill-rule:nonzero;stroke:none"
         id="path86"
         inkscape:connector-curvature="0" /></g></g></g><text
   transform="scale(1,-1)"
   style="font-variant:normal;font-weight:normal;font-stretch:normal;font-size:75px;font-family:FlandersArtSans-Regular;-inkscape-font-specification:FlandersArtSans-Regular;writing-mode:lr-tb;fill:#d96522;fill-opacity:1;fill-rule:nonzero;stroke:none;stroke-width:5"
   id="text92"
   x="327.77057"
   y="38.734501"><tspan
     x="327.77057 347.34555 377.42056 399.39557 429.47055 470.49557 511.14557 546.17053 570.42554 603.87555 644.60059 704.97559 745.62555 786.65057 813.87555 833.45056 874.47559"
     y="38.734501"
     sodipodi:role="line"
     id="tspan88"
     style="stroke-width:5">is supercomputing</tspan><tspan
     x="-340.85446 -298.25446 -262.55444 -219.95444 -177.35445 -125.60445"
     y="-99.040504"
     sodipodi:role="line"
     id="tspan90"
     style="stroke-width:5">VLAAMS</tspan></text>

<text
   transform="scale(1,-1)"
   style="font-variant:normal;font-weight:500;font-stretch:normal;font-size:75px;font-family:FlandersArtSans-Medium;-inkscape-font-specification:FlandersArtSans-Medium;writing-mode:lr-tb;fill:#d96522;fill-opacity:1;fill-rule:nonzero;stroke:none;stroke-width:5"
   id="text98"
   x="-651.65442"
   y="-29.0655"><tspan
     x="-651.65442 -616.32947 -569.22943 -527.15442 -490.77945 -445.92944 -403.85443 -353.37946 -302.97943 -260.90442 -213.80444 -173.00443 -136.62946"
     y="-29.0655"
     sodipodi:role="line"
     id="tspan94"
     style="stroke-width:5">SUPERCOMPUTER</tspan><tspan
     x="-400.17944 -358.10443 -321.72943 -275.00443 -234.20445 -189.35445 -142.25446"
     y="40.9095"
     sodipodi:role="line"
     id="tspan96"
     style="stroke-width:5">CENTRUM</tspan></text>

</g></svg>