<?xml version="1.0" encoding="UTF-8" standalone="no"?>
<!-- Created with Inkscape (http://www.inkscape.org/) -->

<svg
   xmlns:dc="http://purl.org/dc/elements/1.1/"
   xmlns:cc="http://creativecommons.org/ns#"
   xmlns:rdf="http://www.w3.org/1999/02/22-rdf-syntax-ns#"
   xmlns:svg="http://www.w3.org/2000/svg"
   xmlns="http://www.w3.org/2000/svg"
   xmlns:sodipodi="http://sodipodi.sourceforge.net/DTD/sodipodi-0.dtd"
   xmlns:inkscape="http://www.inkscape.org/namespaces/inkscape"
   version="1.1"
   id="svg2"
   xml:space="preserve"
   width="946.80237"
   height="368.56519"
   viewBox="0 0 946.80237 368.56518"
   sodipodi:docname="logo_black.svg"
   inkscape:version="0.92.3 (2405546, 2018-03-11)"><metadata
     id="metadata8"><rdf:RDF><cc:Work
         rdf:about=""><dc:format>image/svg+xml</dc:format><dc:type
           rdf:resource="http://purl.org/dc/dcmitype/StillImage" /><dc:title></dc:title></cc:Work></rdf:RDF></metadata><defs
     id="defs6"><clipPath
       clipPathUnits="userSpaceOnUse"
       id="clipPath34"><path
         d="M 0,92.141 H 236.701 V 0 H 0 Z"
         id="path32"
         inkscape:connector-curvature="0" /></clipPath></defs><sodipodi:namedview
     pagecolor="#ffffff"
     bordercolor="#666666"
     borderopacity="1"
     objecttolerance="10"
     gridtolerance="10"
     guidetolerance="10"
     inkscape:pageopacity="0"
     inkscape:pageshadow="2"
     inkscape:window-width="1920"
     inkscape:window-height="1009"
     id="namedview4"
     showgrid="false"
     fit-margin-top="0"
     fit-margin-left="0"
     fit-margin-right="0"
     fit-margin-bottom="0"
     inkscape:zoom="1.5145691"
     inkscape:cx="473.40145"
     inkscape:cy="184.28246"
     inkscape:window-x="0"
     inkscape:window-y="0"
     inkscape:window-maximized="1"
     inkscape:current-layer="g10" /><g
     id="g10"
     inkscape:groupmode="layer"
     inkscape:label="Vlaanderen_is_supercomputing_BLACK_17092018"
     transform="matrix(1.3333333,0,0,-1.3333333,315.60079,245.70986)"><g
       id="g12"
       transform="matrix(3,0,0,3,-82.9626,184.2824)"><path
         d="M 0,0 -51.246,-0.015 V -92.141 H 31.36 Z"
         style="fill:#f1f1ec;fill-opacity:1;fill-rule:nonzero;stroke:none"
         id="path14"
         inkscape:connector-curvature="0" /></g><g
       id="g16"
       transform="matrix(3,0,0,3,-82.7628,184.2365)"><path
         d="M 0,0 31.249,-92.126 H 185.388 V 0 Z"
         style="fill:#3b3a3b;fill-opacity:1;fill-rule:nonzero;stroke:none"
         id="path18"
         inkscape:connector-curvature="0" /></g><g
       id="g20"
       transform="matrix(3,0,0,3,54.1776,100.4453)"><path
         d="M 0,0 -6.078,-17.64 H -9.69 L -15.768,0 h 3.27 L -7.884,-13.395 -3.27,0 Z"
         style="fill:#f1f1ec;fill-opacity:1;fill-rule:nonzero;stroke:none"
         id="path22"
         inkscape:connector-curvature="0" /></g><g
       id="g24"
       transform="matrix(3,0,0,3,68.5743,105.587)"><path
         d="M 0,0 H 0.396 V -19.09 H -2.689 V -0.264 Z"
         style="fill:#f1f1ec;fill-opacity:1;fill-rule:nonzero;stroke:none"
         id="path26"
         inkscape:connector-curvature="0" /></g><g
       id="g28"
       transform="matrix(3,0,0,3,-236.7006,-92.1409)"><g
         id="g30"
         clip-path="url(#clipPath34)"><g
           id="g36"
           transform="translate(112.2524,52.3565)"><path
             d="m 0,0 c -1.437,0 -2.558,0.026 -3.322,-0.158 -0.765,-0.185 -1.187,-0.58 -1.187,-1.384 0,-1.121 0.804,-1.74 1.925,-1.74 0.382,0 1.028,0.078 1.582,0.422 C -0.448,-2.519 0,-1.898 0,-0.831 Z m 3.679,-5.801 c -1.002,0 -2.057,0.317 -3.073,1.437 -0.54,-0.408 -1.015,-0.764 -1.582,-1.015 -0.58,-0.264 -1.226,-0.422 -2.109,-0.422 -0.949,0 -2.07,0.185 -2.953,0.818 -0.897,0.632 -1.556,1.713 -1.556,3.546 0,1.2 0.29,2.163 1.029,2.808 0.738,0.646 1.938,1.002 3.77,1.002 0.738,0 1.595,0 2.808,-0.105 v 0.685 c 0,0.949 -0.303,1.609 -0.791,2.004 -0.488,0.396 -1.147,0.554 -1.885,0.554 -1.173,0 -2.558,-0.422 -3.665,-0.936 l -0.725,2.689 c 1.437,0.686 3.269,1.16 4.996,1.16 1.358,0 2.624,-0.29 3.573,-1.002 C 2.452,6.71 3.046,5.59 3.046,3.915 v -5.088 c 0,-0.646 0.211,-1.095 0.58,-1.411 0.355,-0.316 0.856,-0.515 1.45,-0.633 z"
             style="fill:#f1f1ec;fill-opacity:1;fill-rule:nonzero;stroke:none"
             id="path38"
             inkscape:connector-curvature="0" /></g><g
           id="g40"
           transform="translate(125.8452,52.3565)"><path
             d="m 0,0 c -1.437,0 -2.558,0.026 -3.322,-0.158 -0.765,-0.185 -1.187,-0.58 -1.187,-1.384 0,-1.121 0.804,-1.74 1.925,-1.74 0.383,0 1.028,0.078 1.582,0.422 C -0.448,-2.519 0,-1.898 0,-0.831 Z m 3.678,-5.801 c -1.002,0 -2.057,0.317 -3.072,1.437 -0.54,-0.408 -1.014,-0.764 -1.582,-1.015 -0.58,-0.264 -1.225,-0.422 -2.109,-0.422 -0.949,0 -2.069,0.185 -2.953,0.818 -0.897,0.632 -1.556,1.713 -1.556,3.546 0,1.2 0.29,2.163 1.029,2.808 0.738,0.646 1.938,1.002 3.77,1.002 0.738,0 1.596,0 2.809,-0.105 v 0.685 c 0,0.949 -0.304,1.609 -0.791,2.004 -0.489,0.396 -1.148,0.554 -1.886,0.554 -1.173,0 -2.558,-0.422 -3.665,-0.936 l -0.725,2.689 c 1.437,0.686 3.27,1.16 4.996,1.16 1.358,0 2.623,-0.29 3.573,-1.002 C 2.452,6.71 3.045,5.59 3.045,3.915 v -5.088 c 0,-0.646 0.211,-1.095 0.58,-1.411 0.356,-0.316 0.857,-0.515 1.451,-0.633 z"
             style="fill:#f1f1ec;fill-opacity:1;fill-rule:nonzero;stroke:none"
             id="path42"
             inkscape:connector-curvature="0" /></g><g
           id="g44"
           transform="translate(132.7661,60.504)"><path
             d="m 0,0 h 2.61 l 0.303,-1.068 c 1.266,0.844 2.835,1.332 4.364,1.332 1.306,0 2.558,-0.356 3.468,-1.147 0.909,-0.791 1.502,-1.991 1.502,-3.719 v -9.083 H 9.163 v 8.174 c 0,1.015 -0.369,1.728 -0.936,2.176 -0.568,0.448 -1.331,0.632 -2.163,0.632 -1.054,0 -2.135,-0.316 -2.979,-0.843 V -13.685 H 0 Z"
             style="fill:#f1f1ec;fill-opacity:1;fill-rule:nonzero;stroke:none"
             id="path46"
             inkscape:connector-curvature="0" /></g><g
           id="g48"
           transform="translate(156.6948,57.6036)"><path
             d="m 0,0 c -0.777,0.198 -1.568,0.29 -2.188,0.29 -1.173,0 -2.163,-0.343 -2.848,-1.055 -0.686,-0.712 -1.081,-1.766 -1.081,-3.19 0,-1.041 0.29,-2.057 0.844,-2.834 0.553,-0.778 1.371,-1.293 2.464,-1.293 0.937,0 1.979,0.33 2.809,0.844 z M 3.085,-10.784 H 0.752 l -0.555,1.028 c -1.054,-0.791 -2.162,-1.292 -3.677,-1.292 -1.965,0 -3.428,0.791 -4.391,2.004 -0.962,1.213 -1.437,2.848 -1.437,4.535 0,2.584 0.779,4.509 2.07,5.788 1.293,1.265 3.111,1.885 5.22,1.885 0.621,0 1.293,-0.039 2.018,-0.132 v 5.01 l 2.61,0.264 h 0.475 z"
             style="fill:#f1f1ec;fill-opacity:1;fill-rule:nonzero;stroke:none"
             id="path50"
             inkscape:connector-curvature="0" /></g><g
           id="g52"
           transform="translate(171.1049,54.9532)"><path
             d="M 0,0 C -0.066,1.002 -0.422,1.715 -0.896,2.189 -1.371,2.65 -1.979,2.848 -2.571,2.848 -3.204,2.848 -3.85,2.637 -4.377,2.176 -4.918,1.701 -5.326,0.989 -5.524,0 Z M 2.122,-4.588 V -7.58 c -1.213,-0.594 -2.716,-0.817 -3.89,-0.817 -1.898,0 -3.651,0.592 -4.943,1.766 -1.292,1.174 -2.109,2.967 -2.109,5.34 0,2.307 0.764,4.073 1.924,5.286 1.148,1.2 2.69,1.819 4.232,1.819 0.435,0 1.213,-0.052 2.018,-0.329 C 0.158,5.208 1.041,4.681 1.7,3.771 2.359,2.861 2.82,1.517 2.82,-0.382 v -2.056 h -8.304 c 0.25,-1.108 0.816,-1.859 1.554,-2.333 0.726,-0.475 1.61,-0.673 2.493,-0.673 1.16,0 2.386,0.329 3.441,0.896 z"
             style="fill:#f1f1ec;fill-opacity:1;fill-rule:nonzero;stroke:none"
             id="path54"
             inkscape:connector-curvature="0" /></g><g
           id="g56"
           transform="translate(184.5249,57.1026)"><path
             d="m 0,0 c -0.777,0.475 -1.542,0.686 -2.32,0.686 -1.002,0 -1.924,-0.37 -2.755,-1.002 v -9.967 H -8.16 V 3.401 h 2.61 l 0.317,-1.12 c 0.949,0.804 2.109,1.384 3.48,1.384 0.369,0 0.884,-0.026 1.384,-0.119 C 0.133,3.454 0.62,3.322 0.977,3.125 Z"
             style="fill:#f1f1ec;fill-opacity:1;fill-rule:nonzero;stroke:none"
             id="path58"
             inkscape:connector-curvature="0" /></g><g
           id="g60"
           transform="translate(195.1127,54.9532)"><path
             d="M 0,0 C -0.066,1.002 -0.422,1.715 -0.896,2.189 -1.371,2.65 -1.979,2.848 -2.571,2.848 -3.204,2.848 -3.85,2.637 -4.377,2.176 -4.918,1.701 -5.326,0.989 -5.524,0 Z M 2.122,-4.588 V -7.58 c -1.213,-0.594 -2.716,-0.817 -3.89,-0.817 -1.898,0 -3.651,0.592 -4.943,1.766 -1.292,1.174 -2.109,2.967 -2.109,5.34 0,2.307 0.764,4.073 1.924,5.286 1.148,1.2 2.69,1.819 4.232,1.819 0.435,0 1.213,-0.052 2.018,-0.329 C 0.158,5.208 1.041,4.681 1.7,3.771 2.359,2.861 2.82,1.517 2.82,-0.382 v -2.056 h -8.304 c 0.25,-1.108 0.816,-1.859 1.554,-2.333 0.726,-0.475 1.61,-0.673 2.493,-0.673 1.16,0 2.386,0.329 3.441,0.896 z"
             style="fill:#f1f1ec;fill-opacity:1;fill-rule:nonzero;stroke:none"
             id="path62"
             inkscape:connector-curvature="0" /></g><g
           id="g64"
           transform="translate(200.3715,60.504)"><path
             d="m 0,0 h 2.61 l 0.303,-1.068 c 1.266,0.844 2.835,1.332 4.364,1.332 1.306,0 2.558,-0.356 3.468,-1.147 0.909,-0.791 1.502,-1.991 1.502,-3.719 v -9.083 H 9.163 v 8.174 c 0,1.015 -0.369,1.728 -0.936,2.176 -0.568,0.448 -1.331,0.632 -2.163,0.632 -1.054,0 -2.135,-0.316 -2.979,-0.843 V -13.685 H 0 Z"
             style="fill:#f1f1ec;fill-opacity:1;fill-rule:nonzero;stroke:none"
             id="path66"
             inkscape:connector-curvature="0" /></g><g
           id="g68"
           transform="translate(51.54,45.689)"><path
             d="m 0,0 c -2.037,1.555 -2.991,-0.012 -4.272,0.092 -1.084,0.086 -2.1,1.836 -2.939,1.418 -1.601,-0.815 0.642,-3.695 1.615,-4.283 0.867,-0.519 1.958,-0.998 2.22,-1.119 1.287,-0.602 1.799,-1.512 1.961,-2.934 0.041,-0.326 0,-1.07 -0.08,-1.416 -0.587,-2.492 -4.953,-4.756 -7.46,-3.043 -1.181,0.809 -2.259,1.854 -2.632,3.703 -0.675,3.276 -3.039,5.684 -3.797,8.889 -0.461,1.947 -0.802,4.002 -1.31,5.961 -0.517,2.025 -1.049,4.031 -1.473,5.871 -0.387,1.711 -1.2,4.267 -1.789,5.826 -2.395,6.251 -3.477,5.797 -3.477,5.797 0,0 0.872,-1.735 4.043,-17.059 0.131,-0.627 1.284,-7.377 2.125,-9.599 0.301,-0.797 0.827,-2.498 1.172,-3.25 1.009,-2.195 3.672,-5.523 3.848,-8.523 0.101,-1.735 0.299,-3.17 0.34,-4.483 0.025,-0.385 0.195,-1.949 0.445,-2.644 0.65,-1.83 5.9,-7.735 11.474,-7.735 v 4.475 c -5.538,0 -10.755,3.103 -10.884,3.43 -0.08,0.146 0.288,2.263 0.663,3.205 0.726,1.822 2.094,3.488 4.5,3.666 2.683,0.193 4.302,-0.586 5.721,-0.586 z"
             style="fill:#3b3a3b;fill-opacity:1;fill-rule:nonzero;stroke:none"
             id="path70"
             inkscape:connector-curvature="0" /></g><g
           id="g72"
           transform="translate(27.4902,61.9293)"><path
             d="m 0,0 c -0.203,-3.352 -5.389,-7.934 -7.014,-10.871 -0.796,-1.445 -1.768,-3.926 -2.019,-5.363 -0.69,-3.998 0.185,-6.482 1.16,-8.822 1.716,-4.113 -0.232,-5.625 1.109,-4.791 1.661,1.353 1.409,4.51 1.286,6.48 -0.096,1.6 -0.204,3.418 0.039,5.325 0.46,3.565 2.62,7.394 4.463,10.069 C 1.213,-4.781 0.418,-1.48 0,0"
             style="fill:#3b3a3b;fill-opacity:1;fill-rule:nonzero;stroke:none"
             id="path74"
             inkscape:connector-curvature="0" /></g><g
           id="g76"
           transform="translate(28.5351,52.4117)"><path
             d="m 0,0 c 0,0 0.553,-2.654 -1.789,-9.48 -6.125,-17.853 5.575,-19.545 8.906,-23.742 0,0 1.289,1.818 -4.017,7.639 -1.938,2.126 -3.686,6.812 -2.163,13.505 C 3.139,-2.387 0,0 0,0"
             style="fill:#3b3a3b;fill-opacity:1;fill-rule:nonzero;stroke:none"
             id="path78"
             inkscape:connector-curvature="0" /></g><g
           id="g80"
           transform="translate(16.9531,64.1168)"><path
             d="m 0,0 c -0.28,1.055 -0.365,1.998 -0.304,2.84 0.283,4.196 4.093,5.894 5.042,6.519 0,0 1.713,1.173 1.934,2.357 0,0 1.754,-4.415 -2.268,-6.944 C 2.363,3.486 0.977,1.98 0,0"
             style="fill:#3b3a3b;fill-opacity:1;fill-rule:nonzero;stroke:none"
             id="path82"
             inkscape:connector-curvature="0" /></g><g
           id="g84"
           transform="translate(26.5605,68.172)"><path
             d="m 0,0 c 0.217,-0.426 1.796,-2.737 -4.671,-8.075 -6.454,-5.33 -4.438,-9.14 -4.438,-9.14 0,0 -6.89,3.832 1.046,10.453 7.934,6.616 6.308,7.957 6.308,7.957 0,0 1.136,0.055 1.755,-1.195"
             style="fill:#3b3a3b;fill-opacity:1;fill-rule:nonzero;stroke:none"
             id="path86"
             inkscape:connector-curvature="0" /></g><g
           id="g88"
           transform="translate(38.4355,64.5602)"><path
             d="M 0,0 C 0.094,0.25 0.229,0.049 0.512,0.227 0.813,0.512 1.123,0.98 1.613,1.137 1.965,1.244 2.447,1.193 2.776,1.066 2.995,1.012 2.862,0.449 2.698,0.305 2.349,0.047 1.316,0.473 1.316,-0.301 1.359,-1.57 3.031,-0.262 3.905,-0.297 4.332,-3.393 -0.761,-2.541 0,0 M -3.48,1.568 C -2.363,1.422 -1.652,-2.063 0.932,-2.82 2.832,-3.375 4.852,-3.074 5.3,-4.217 4.428,-4.68 5.115,-6.213 5.992,-5.961 6.716,-3.926 7.08,3.944 -3.48,1.568"
             style="fill:#3b3a3b;fill-opacity:1;fill-rule:nonzero;stroke:none"
             id="path90"
             inkscape:connector-curvature="0" /></g><path
           d="m 85.39,36.647 h 1.135 V 29.044 H 85.39 Z m -0.22,2.08 c 0,0.214 0.076,0.397 0.228,0.549 0.152,0.151 0.338,0.227 0.559,0.227 0.222,0 0.41,-0.076 0.564,-0.227 0.154,-0.152 0.229,-0.335 0.224,-0.549 0,-0.215 -0.078,-0.401 -0.234,-0.557 -0.157,-0.156 -0.34,-0.232 -0.55,-0.228 -0.214,0 -0.4,0.079 -0.556,0.235 -0.157,0.151 -0.235,0.335 -0.235,0.55"
           style="fill:#ffffff;fill-opacity:1;fill-rule:nonzero;stroke:none"
           id="path92"
           inkscape:connector-curvature="0" /><g
           id="g94"
           transform="translate(90.125,29.9522)"><path
             d="m 0,0 c 0.406,0.005 0.751,0.046 1.035,0.124 0.283,0.077 0.528,0.214 0.734,0.408 0.214,0.195 0.322,0.447 0.322,0.758 0,0.311 -0.19,0.58 -0.57,0.809 C 1.366,2.196 1.059,2.337 0.602,2.521 0.144,2.706 -0.196,2.859 -0.417,2.98 c -0.784,0.414 -1.176,1.023 -1.176,1.83 0,0.471 0.123,0.863 0.368,1.175 0.446,0.571 1.189,0.856 2.228,0.856 0.521,0 1.036,-0.073 1.542,-0.22 V 5.567 L 2.501,5.546 c -0.589,0.16 -1.147,0.24 -1.673,0.24 -0.857,0 -1.286,-0.294 -1.286,-0.882 0,-0.364 0.198,-0.671 0.592,-0.918 C 0.299,3.869 0.64,3.709 1.156,3.505 1.672,3.301 2.077,3.124 2.37,2.974 2.663,2.822 2.877,2.621 3.014,2.369 3.151,2.116 3.222,1.783 3.227,1.371 3.227,0.608 2.915,0.014 2.29,-0.414 1.67,-0.841 1,-1.055 0.277,-1.055 c -0.722,0 -1.355,0.115 -1.899,0.342 v 1.056 l 0.044,0.036 C -0.932,0.126 -0.406,0 0,0"
             style="fill:#ffffff;fill-opacity:1;fill-rule:nonzero;stroke:none"
             id="path96"
             inkscape:connector-curvature="0" /></g><g
           id="g98"
           transform="translate(100.5327,29.9522)"><path
             d="m 0,0 c 0.406,0.005 0.751,0.046 1.035,0.124 0.283,0.077 0.528,0.214 0.734,0.408 0.214,0.195 0.322,0.447 0.322,0.758 0,0.311 -0.19,0.58 -0.57,0.809 C 1.366,2.196 1.059,2.337 0.602,2.521 0.144,2.706 -0.196,2.859 -0.417,2.98 c -0.784,0.414 -1.176,1.023 -1.176,1.83 0,0.471 0.123,0.863 0.368,1.175 0.446,0.571 1.189,0.856 2.228,0.856 0.521,0 1.036,-0.073 1.542,-0.22 V 5.567 L 2.501,5.546 c -0.589,0.16 -1.147,0.24 -1.673,0.24 -0.857,0 -1.286,-0.294 -1.286,-0.882 0,-0.364 0.198,-0.671 0.592,-0.918 C 0.299,3.869 0.64,3.709 1.156,3.505 1.672,3.301 2.077,3.124 2.37,2.974 2.663,2.822 2.877,2.621 3.014,2.369 3.151,2.116 3.222,1.783 3.227,1.371 3.227,0.608 2.915,0.014 2.29,-0.414 1.67,-0.841 1,-1.055 0.277,-1.055 c -0.722,0 -1.355,0.115 -1.899,0.342 v 1.056 l 0.044,0.036 C -0.932,0.126 -0.406,0 0,0"
             style="fill:#ffffff;fill-opacity:1;fill-rule:nonzero;stroke:none"
             id="path100"
             inkscape:connector-curvature="0" /></g><g
           id="g102"
           transform="translate(108.2343,29.9522)"><path
             d="M 0,0 C 0.527,0 1.196,0.241 2.007,0.725 V 6.694 H 3.142 V -0.908 H 2.424 L 2.197,-0.177 C 1.304,-0.762 0.498,-1.055 -0.22,-1.055 c -0.722,0 -1.333,0.23 -1.831,0.689 -0.498,0.459 -0.747,1.191 -0.747,2.197 v 4.863 h 1.135 V 1.902 C -1.663,0.634 -1.108,0 0,0"
             style="fill:#ffffff;fill-opacity:1;fill-rule:nonzero;stroke:none"
             id="path104"
             inkscape:connector-curvature="0" /></g><g
           id="g106"
           transform="translate(116.3422,29.9522)"><path
             d="M 0,0 C 0.771,0 1.401,0.272 1.89,0.818 2.378,1.363 2.62,2.072 2.615,2.944 2.61,3.816 2.417,4.508 2.036,5.019 1.655,5.53 1.069,5.786 0.278,5.786 -0.513,5.786 -1.101,5.514 -1.486,4.968 V 0.292 C -1.013,0.098 -0.518,0 0,0 m -2.622,6.694 h 0.762 l 0.205,-0.659 c 0.625,0.537 1.333,0.806 2.124,0.806 0.974,0 1.763,-0.368 2.368,-1.105 C 3.441,5 3.743,4.066 3.743,2.937 3.743,1.807 3.417,0.859 2.764,0.094 2.11,-0.672 1.162,-1.055 -0.08,-1.055 c -0.464,0 -0.933,0.051 -1.406,0.155 v -3.363 h -1.136 z"
             style="fill:#ffffff;fill-opacity:1;fill-rule:nonzero;stroke:none"
             id="path108"
             inkscape:connector-curvature="0" /></g><g
           id="g110"
           transform="translate(124.5092,35.7384)"><path
             d="m 0,0 c -0.57,0 -1.032,-0.197 -1.384,-0.593 -0.351,-0.394 -0.579,-0.905 -0.68,-1.531 H 1.51 C 1.494,-1.084 1.235,-0.429 0.732,-0.159 0.532,-0.053 0.288,0 0,0 m 2.645,-3.179 h -4.743 c 0.054,-0.8 0.305,-1.435 0.754,-1.904 0.449,-0.469 1.019,-0.703 1.707,-0.703 0.689,0 1.389,0.181 2.102,0.542 L 2.487,-5.251 V -6.299 C 1.751,-6.66 1.023,-6.841 0.307,-6.841 c -1.104,0 -1.967,0.362 -2.592,1.086 -0.625,0.725 -0.938,1.684 -0.938,2.878 0,1.184 0.268,2.136 0.803,2.857 0.535,0.716 1.348,1.075 2.437,1.075 1.089,0 1.843,-0.44 2.261,-1.319 0.24,-0.503 0.362,-1.132 0.367,-1.889 z"
             style="fill:#ffffff;fill-opacity:1;fill-rule:nonzero;stroke:none"
             id="path112"
             inkscape:connector-curvature="0" /></g><g
           id="g114"
           transform="translate(128.853,36.6466)"><path
             d="m 0,0 h 0.762 l 0.263,-0.871 c 0.581,0.679 1.204,1.017 1.868,1.017 0.449,0 0.869,-0.087 1.259,-0.264 L 3.758,-1.143 c -0.322,0.157 -0.672,0.235 -1.048,0.235 -0.606,0 -1.131,-0.339 -1.575,-1.017 V -7.603 H 0 Z"
             style="fill:#ffffff;fill-opacity:1;fill-rule:nonzero;stroke:none"
             id="path116"
             inkscape:connector-curvature="0" /></g><g
           id="g118"
           transform="translate(136.6606,28.8975)"><path
             d="m 0,0 c -1.001,0 -1.816,0.312 -2.446,0.937 -0.733,0.713 -1.099,1.731 -1.099,3.055 0,1.322 0.334,2.304 1.004,2.944 0.668,0.639 1.516,0.96 2.541,0.96 0.723,0 1.447,-0.181 2.176,-0.542 V 6.357 L 2.124,6.32 C 1.44,6.667 0.747,6.841 0.044,6.841 -0.659,6.841 -1.243,6.616 -1.707,6.167 -2.176,5.718 -2.41,5.005 -2.41,4.028 -2.415,3.062 -2.178,2.324 -1.699,1.816 -1.221,1.309 -0.635,1.055 0.059,1.055 c 0.693,0 1.381,0.173 2.065,0.519 L 2.176,1.538 V 0.542 C 1.447,0.181 0.723,0 0,0"
             style="fill:#ffffff;fill-opacity:1;fill-rule:nonzero;stroke:none"
             id="path120"
             inkscape:connector-curvature="0" /></g><g
           id="g122"
           transform="translate(140.9448,32.8673)"><path
             d="m 0,0 c 0,-0.84 0.21,-1.536 0.631,-2.087 0.424,-0.553 1.008,-0.828 1.75,-0.828 0.742,0 1.313,0.264 1.714,0.791 0.4,0.527 0.602,1.211 0.608,2.051 C 4.703,0.776 4.5,1.479 4.095,2.036 3.694,2.593 3.118,2.871 2.366,2.871 1.614,2.871 1.033,2.603 0.623,2.065 0.213,1.528 0.005,0.84 0,0 m 5.838,-0.015 c 0,-1.113 -0.33,-2.05 -0.988,-2.812 -0.661,-0.762 -1.5,-1.143 -2.52,-1.143 -1.021,0 -1.853,0.378 -2.498,1.135 -0.644,0.757 -0.967,1.689 -0.967,2.799 0,1.107 0.33,2.045 0.989,2.812 0.66,0.766 1.501,1.15 2.527,1.15 1.025,0 1.857,-0.381 2.498,-1.143 0.639,-0.762 0.959,-1.694 0.959,-2.798"
             style="fill:#ffffff;fill-opacity:1;fill-rule:nonzero;stroke:none"
             id="path124"
             inkscape:connector-curvature="0" /></g><g
           id="g126"
           transform="translate(157.2045,33.836)"><path
             d="m 0,0 c 0,1.269 -0.553,1.902 -1.658,1.902 -0.464,0 -1.034,-0.187 -1.712,-0.563 0.118,-0.376 0.177,-0.797 0.177,-1.266 v -4.865 h -1.135 v 4.8 c 0,1.263 -0.467,1.894 -1.399,1.894 -0.577,0 -1.177,-0.239 -1.802,-0.716 v -5.978 h -1.135 v 7.603 h 0.718 l 0.257,-0.702 c 0.863,0.566 1.623,0.848 2.277,0.848 0.654,0 1.197,-0.275 1.63,-0.826 0.884,0.551 1.628,0.826 2.233,0.826 0.795,0 1.442,-0.229 1.939,-0.688 C 0.887,1.81 1.136,1.077 1.136,0.071 V -4.8 H 0 Z"
             style="fill:#ffffff;fill-opacity:1;fill-rule:nonzero;stroke:none"
             id="path128"
             inkscape:connector-curvature="0" /></g><g
           id="g130"
           transform="translate(163.2329,29.9522)"><path
             d="M 0,0 C 0.771,0 1.401,0.272 1.89,0.818 2.378,1.363 2.619,2.072 2.614,2.944 2.609,3.816 2.417,4.508 2.036,5.019 1.655,5.53 1.069,5.786 0.278,5.786 c -0.791,0 -1.38,-0.272 -1.765,-0.818 V 0.292 C -1.014,0.098 -0.518,0 0,0 m -2.622,6.694 h 0.762 l 0.205,-0.659 c 0.625,0.537 1.333,0.806 2.124,0.806 0.974,0 1.763,-0.368 2.367,-1.105 C 3.44,5 3.743,4.066 3.743,2.937 3.743,1.807 3.416,0.859 2.763,0.094 2.11,-0.672 1.162,-1.055 -0.081,-1.055 c -0.464,0 -0.933,0.051 -1.406,0.155 v -3.363 h -1.135 z"
             style="fill:#ffffff;fill-opacity:1;fill-rule:nonzero;stroke:none"
             id="path132"
             inkscape:connector-curvature="0" /></g><g
           id="g134"
           transform="translate(171.4653,29.9522)"><path
             d="M 0,0 C 0.527,0 1.196,0.241 2.007,0.725 V 6.694 H 3.143 V -0.908 H 2.424 L 2.197,-0.177 C 1.304,-0.762 0.498,-1.055 -0.22,-1.055 c -0.722,0 -1.333,0.23 -1.831,0.689 -0.498,0.459 -0.747,1.191 -0.747,2.197 v 4.863 h 1.136 V 1.902 C -1.662,0.634 -1.108,0 0,0"
             style="fill:#ffffff;fill-opacity:1;fill-rule:nonzero;stroke:none"
             id="path136"
             inkscape:connector-curvature="0" /></g><g
           id="g138"
           transform="translate(176.0717,36.6466)"><path
             d="M 0,0 H 0.842 V 1.362 L 1.904,1.56 H 1.978 V 0 H 4.087 V -1.055 H 1.978 v -3.73 c 0,-0.644 0.122,-1.122 0.366,-1.434 0.244,-0.312 0.581,-0.47 1.01,-0.475 0.42,0 0.894,0.151 1.421,0.453 L 5.083,-7.284 C 4.404,-7.594 3.745,-7.749 3.105,-7.749 2.466,-7.749 1.929,-7.51 1.494,-7.031 1.06,-6.553 0.842,-5.806 0.842,-4.79 v 3.735 H 0 Z"
             style="fill:#ffffff;fill-opacity:1;fill-rule:nonzero;stroke:none"
             id="path140"
             inkscape:connector-curvature="0" /></g><path
           d="m 182.62,36.647 h 1.136 v -7.603 h -1.136 z m -0.22,2.08 c 0,0.214 0.076,0.397 0.227,0.549 0.153,0.151 0.339,0.227 0.56,0.227 0.222,0 0.409,-0.076 0.563,-0.227 0.155,-0.152 0.229,-0.335 0.224,-0.549 0,-0.215 -0.078,-0.401 -0.234,-0.557 -0.157,-0.156 -0.339,-0.232 -0.549,-0.228 -0.215,0 -0.401,0.079 -0.557,0.235 -0.156,0.151 -0.234,0.335 -0.234,0.55"
           style="fill:#ffffff;fill-opacity:1;fill-rule:nonzero;stroke:none"
           id="path142"
           inkscape:connector-curvature="0" /><g
           id="g144"
           transform="translate(189.4614,35.7384)"><path
             d="m 0,0 c -0.519,0 -1.187,-0.244 -2.008,-0.731 v -5.963 h -1.135 v 7.602 h 0.762 l 0.213,-0.709 c 0.879,0.571 1.677,0.856 2.395,0.856 0.717,0 1.326,-0.23 1.824,-0.689 0.498,-0.459 0.746,-1.191 0.746,-2.197 V -6.694 H 1.662 v 4.792 C 1.662,-0.634 1.107,0 0,0"
             style="fill:#ffffff;fill-opacity:1;fill-rule:nonzero;stroke:none"
             id="path146"
             inkscape:connector-curvature="0" /></g><g
           id="g148"
           transform="translate(196.8579,35.7384)"><path
             d="m 0,0 c -0.527,0 -0.947,-0.156 -1.26,-0.469 -0.312,-0.312 -0.469,-0.668 -0.469,-1.065 0,-0.399 0.157,-0.756 0.469,-1.073 0.313,-0.313 0.738,-0.469 1.275,-0.469 0.537,0 0.954,0.151 1.252,0.455 0.302,0.298 0.455,0.65 0.455,1.058 0,0.408 -0.155,0.77 -0.462,1.087 C 0.947,-0.159 0.527,0 0,0 m -1.875,-7.675 c 0,-0.977 0.615,-1.466 1.846,-1.466 0.736,0 1.364,0.184 1.882,0.552 0.517,0.367 0.777,0.789 0.777,1.264 0,0.474 -0.29,0.803 -0.869,0.984 -0.411,0.121 -1.109,0.182 -2.094,0.182 H -1.201 C -1.65,-6.648 -1.875,-7.153 -1.875,-7.675 m 2.542,2.571 c 1.02,0 1.791,-0.208 2.313,-0.624 0.523,-0.415 0.785,-0.929 0.785,-1.542 0,-0.798 -0.411,-1.486 -1.231,-2.061 -0.82,-0.576 -1.689,-0.864 -2.607,-0.864 -0.918,0 -1.637,0.229 -2.157,0.688 -0.52,0.458 -0.781,1.036 -0.781,1.735 0,0.307 0.08,0.626 0.24,0.959 0.161,0.331 0.391,0.636 0.691,0.916 -0.195,0.116 -0.347,0.301 -0.454,0.555 -0.108,0.254 -0.164,0.493 -0.168,0.717 0,0.447 0.182,0.907 0.549,1.38 -0.205,0.205 -0.362,0.472 -0.469,0.801 -0.107,0.329 -0.161,0.651 -0.161,0.966 0,0.732 0.263,1.337 0.791,1.815 0.527,0.478 1.201,0.718 2.021,0.718 0.557,0 1.048,-0.122 1.472,-0.368 0.322,0.245 0.661,0.437 1.017,0.576 0.356,0.139 0.672,0.209 0.95,0.209 L 3.809,0.417 C 3.309,0.343 2.836,0.178 2.39,-0.078 2.701,-0.485 2.856,-0.942 2.856,-1.449 2.856,-2.182 2.582,-2.813 2.032,-3.34 1.482,-3.867 0.79,-4.131 -0.044,-4.131 c -0.488,0 -0.957,0.115 -1.406,0.347 -0.171,-0.227 -0.256,-0.44 -0.256,-0.64 0,-0.2 0.082,-0.364 0.248,-0.491 0.166,-0.127 0.396,-0.189 0.689,-0.189 z"
             style="fill:#ffffff;fill-opacity:1;fill-rule:nonzero;stroke:none"
             id="path150"
             inkscape:connector-curvature="0" /></g></g></g></g></svg>